<svg width="144" height="43" viewBox="0 0 144 43" fill="none" xmlns="http://www.w3.org/2000/svg">
<path d="M22.0855 21.008C21.1338 20.0136 20.0465 19.1586 18.8557 18.4682C17.6519 17.7912 16.4132 17.1784 15.1447 16.6322C15.3468 16.4261 15.5268 16.1995 15.6819 15.9561C15.9944 15.4578 16.224 14.9121 16.3616 14.3403C16.4885 13.8363 16.5539 13.3188 16.5566 12.7991C16.5553 12.4299 16.5188 12.0617 16.4477 11.6994C16.3699 11.2935 16.2464 10.8978 16.0795 10.5197C15.9052 10.1232 15.6722 9.75514 15.3883 9.42791C15.086 9.08112 14.7206 8.79491 14.3115 8.58452L14.3115 0.149414C15.8002 0.36695 17.2357 0.858505 18.5453 1.59918C19.8 2.313 20.9114 3.2533 21.8232 4.37238C22.7498 5.51194 23.4668 6.80694 23.9407 8.19711C24.4452 9.67909 24.6992 11.2348 24.6921 12.8003C24.6928 13.6844 24.6145 14.5668 24.4581 15.4369C24.307 16.2747 24.0795 17.0969 23.7783 17.8931C23.4856 18.6664 23.1207 19.4105 22.6883 20.1153C22.5012 20.4197 22.2985 20.7198 22.0867 21.0074L22.0855 21.008Z" fill="#2C3041"/>
<path d="M8.13493 42.6672H0L0.0318828 18.71C0.423253 19.4669 0.902824 20.1748 1.46059 20.819C2.02542 21.4678 2.65311 22.059 3.33446 22.584C4.81021 23.6921 6.42392 24.6033 8.13493 25.2947V42.6678V42.6672Z" fill="#2C3041"/>
<path d="M12.1193 42.6673H9.61804V34.7375H11.7837C12.6312 34.7423 13.4584 34.4784 14.1466 33.9837C14.3638 33.8267 14.5653 33.649 14.7482 33.4531C14.9316 33.2573 15.0961 33.0446 15.2396 32.8179C15.6797 32.1224 15.9136 31.3164 15.914 30.4935C15.9165 30.0608 15.8777 29.6289 15.7979 29.2037C15.7282 28.838 15.6172 28.4814 15.467 28.1407C15.3291 27.8315 15.1553 27.5395 14.9491 27.2709C14.748 27.0111 14.5206 26.7728 14.2705 26.5598C13.126 25.714 11.8492 25.0635 10.4921 24.6348L10.0512 24.4646C8.6763 23.9531 7.3468 23.327 6.07664 22.5931C5.48328 22.2456 4.9121 21.8614 4.3664 21.4429C3.84002 21.0383 3.34586 20.5934 2.88836 20.1123C2.43934 19.6379 2.03461 19.1234 1.67922 18.5753C1.31832 18.0165 1.01383 17.4233 0.77026 16.8043C0.513732 16.1475 0.322318 15.4671 0.198776 14.7728C0.0642973 14.007 -0.0019339 13.2307 0.000862104 12.4532C-0.0180806 10.7068 0.275283 8.97107 0.867112 7.32789C1.40201 5.85959 2.24153 4.52107 3.33051 3.40029C4.4207 2.29549 5.73578 1.43812 7.18652 0.886362C8.79891 0.281942 10.5094 -0.0182984 12.2312 0.000862514C12.4285 0.000862514 12.6301 0.00627657 12.8328 0.0177063V8.17549C12.4722 8.08643 12.1021 8.04198 11.7307 8.04315C11.225 8.04448 10.7265 8.16309 10.2743 8.38965C10.0498 8.50109 9.83702 8.6347 9.63909 8.78848C9.43885 8.94391 9.25338 9.1175 9.08505 9.30703C8.39161 10.0815 8.00224 11.081 7.98901 12.1205C7.99291 12.6211 8.11297 13.1138 8.33972 13.5601C8.58383 14.0362 8.90384 14.4694 9.28718 14.8426C10.175 15.6834 11.212 16.351 12.3449 16.8109C13.0115 17.0822 14.1273 17.5587 15.2631 18.0814C16.1736 18.4873 17.0628 18.9393 17.9274 19.4355C18.4304 19.7358 18.9175 20.0619 19.3868 20.4125C19.8225 20.7385 20.2372 21.0917 20.6284 21.47C20.9988 21.8297 21.3426 22.2157 21.6571 22.625C21.9651 23.0268 22.2416 23.4518 22.4843 23.8961C22.7296 24.3478 22.9406 24.8173 23.1153 25.3008C23.2977 25.8089 23.4452 26.3288 23.5568 26.857C23.6767 27.4264 23.7634 28.0023 23.8167 28.5817C23.8733 29.1796 23.9015 29.8227 23.9015 30.4929C23.9011 31.3198 23.8206 32.1448 23.6609 32.9562C23.5081 33.7395 23.2802 34.5062 22.9805 35.2458C22.6862 35.9683 22.3237 36.661 21.8977 37.3146C21.4774 37.9588 20.9966 38.5615 20.4618 39.1144C19.9294 39.6638 19.3452 40.1604 18.7173 40.5973C18.0884 41.0351 17.4178 41.4097 16.7153 41.7156C16.0026 42.0254 15.2602 42.262 14.4997 42.4218C13.7168 42.5853 12.9191 42.6676 12.1193 42.6673Z" fill="#18CC69"/>
<path d="M4.31387 40.2643H3.62207V37.843H4.31387V40.2643ZM4.31387 36.4594H3.62207V34.0381H4.31387V36.4594ZM4.31387 32.6545H3.62207V30.2332H4.31387V32.6545ZM4.31387 28.8496H3.62207V26.4277H4.31387V28.8496Z" fill="white"/>
<path d="M20.1064 16.1965L19.5048 15.8584C19.8899 15.1794 20.194 14.4573 20.4104 13.7072L21.0763 13.8949C20.8444 14.6975 20.5187 15.47 20.1064 16.1965ZM21.3506 12.4819L20.6624 12.4072C20.7483 11.641 20.7076 10.8659 20.542 10.1129L21.2176 9.96251C21.3995 10.7894 21.4445 11.6405 21.3506 12.4819ZM20.1337 8.86227C19.8258 8.15478 19.4049 7.50199 18.8877 6.92944L19.4014 6.46623C19.9687 7.09429 20.4302 7.81026 20.7682 8.58616L20.1337 8.86227ZM17.9181 6.04274C17.3494 5.57193 16.6535 5.28069 15.9189 5.20597V4.51416C16.8036 4.58487 17.6456 4.92475 18.3314 5.4881L17.9181 6.04274Z" fill="white"/>
<path d="M34.0615 10.2054H35.9862C37.3935 10.2054 37.9937 9.50175 37.9937 8.38417C37.9937 7.26658 37.3935 6.56291 35.9862 6.56291H34.0615V10.2054ZM41.5948 8.38417C41.5948 10.7849 39.9599 13.0201 36.2553 13.0201H34.0615V18.2355H30.5225V3.70686H36.2553C39.815 3.70686 41.5948 5.71438 41.5948 8.38417Z" fill="#2C3041"/>
<path d="M42.7336 12.4406C42.7336 8.79809 44.9895 6.52152 47.8248 6.52152C49.5426 6.52152 50.7637 7.30797 51.3846 8.32208V6.68709H54.9236V18.2355H51.3846V16.6005C50.743 17.6146 49.5219 18.4011 47.8041 18.4011C44.9895 18.4011 42.7336 16.0831 42.7336 12.4406ZM51.3846 12.4613C51.3846 10.6193 50.2049 9.60523 48.8596 9.60523C47.5351 9.60523 46.3347 10.5986 46.3347 12.4406C46.3347 14.2825 47.5351 15.3173 48.8596 15.3173C50.2049 15.3173 51.3846 14.3032 51.3846 12.4613Z" fill="#2C3041"/>
<path d="M61.0229 12.8752V18.2355H57.4839V6.68709H61.0229V8.61182C61.8301 7.39075 63.0925 6.56291 64.6447 6.56291V10.3089H63.672C61.9956 10.3089 61.0229 10.8884 61.0229 12.8752Z" fill="#2C3041"/>
<path d="M66.3363 18.2355V2.92041H69.8753V11.3851L73.373 6.68709H77.7398L72.9384 12.482L77.7812 18.2355H73.3937L69.8753 13.3926V18.2355H66.3363Z" fill="#2C3041"/>
<path d="M89.6849 13.91C89.6849 16.3521 87.7808 18.3804 84.3867 18.3804C81.2616 18.3804 78.8194 16.8282 78.716 13.8893H82.4826C82.5861 15.0069 83.2898 15.545 84.2832 15.545C85.318 15.545 85.9803 15.0276 85.9803 14.1791C85.9803 11.4886 78.716 12.9373 78.7573 7.78398C78.7573 5.03141 81.0132 3.4999 84.0555 3.4999C87.222 3.4999 89.3537 5.0728 89.4986 7.84607H85.6698C85.6077 6.91475 84.9455 6.35595 83.9934 6.33526C83.1449 6.31456 82.5033 6.74918 82.5033 7.6598C82.5033 10.1847 89.6849 9.04644 89.6849 13.91Z" fill="#2C3041"/>
<path d="M107.778 18.2355V11.9646C107.778 10.4538 106.909 9.62593 105.564 9.62593C104.218 9.62593 103.349 10.4538 103.349 11.9646V18.2355H99.8308V11.9646C99.8308 10.4538 98.9615 9.62593 97.6163 9.62593C96.271 9.62593 95.4018 10.4538 95.4018 11.9646V18.2355H91.8628V6.68709H95.4018V8.13581C96.0848 7.20449 97.2645 6.56291 98.7753 6.56291C100.514 6.56291 101.921 7.32867 102.708 8.7153C103.473 7.49423 104.922 6.56291 106.598 6.56291C109.454 6.56291 111.296 8.38417 111.296 11.4886V18.2355H107.778Z" fill="#2C3041"/>
<path d="M113.068 12.4406C113.068 8.79809 115.324 6.52152 118.159 6.52152C119.877 6.52152 121.098 7.30797 121.719 8.32208V6.68709H125.258V18.2355H121.719V16.6005C121.077 17.6146 119.856 18.4011 118.138 18.4011C115.324 18.4011 113.068 16.0831 113.068 12.4406ZM121.719 12.4613C121.719 10.6193 120.539 9.60523 119.194 9.60523C117.869 9.60523 116.669 10.5986 116.669 12.4406C116.669 14.2825 117.869 15.3173 119.194 15.3173C120.539 15.3173 121.719 14.3032 121.719 12.4613Z" fill="#2C3041"/>
<path d="M131.357 12.8752V18.2355H127.818V6.68709H131.357V8.61182C132.164 7.39075 133.427 6.56291 134.979 6.56291V10.3089H134.006C132.33 10.3089 131.357 10.8884 131.357 12.8752Z" fill="#2C3041"/>
<path d="M137.229 14.2205V9.62593H135.822V6.68709H137.229V3.87243H140.768V6.68709H143.086V9.62593H140.768V14.2618C140.768 14.9448 141.058 15.2346 141.845 15.2346H143.107V18.2355H141.306C138.906 18.2355 137.229 17.2214 137.229 14.2205Z" fill="#2C3041"/>
<path d="M40.5685 35.3746C40.5685 34.113 39.6854 33.3813 38.2472 33.3813H35.1184V37.2923H38.2977C39.7359 37.2923 40.5685 36.6362 40.5685 35.3746ZM40.1396 28.3853C40.1396 27.1742 39.3574 26.5182 37.9444 26.5182H35.1184V30.2273H37.9444C39.3574 30.2273 40.1396 29.5965 40.1396 28.3853ZM44.9337 35.955C44.9337 38.8819 42.789 40.7743 39.0546 40.7743H30.8037V23.0613H38.7771C42.3853 23.0613 44.53 24.8528 44.53 27.6536C44.53 29.7983 43.2432 31.1861 41.5274 31.6907C43.5964 32.1197 44.9337 33.9364 44.9337 35.955Z" fill="#18CC69"/>
<path d="M61.3392 26.6948V40.7743H57.0245V38.8567C56.1666 40.0678 54.6526 40.9257 52.7602 40.9257C49.5053 40.9257 47.3101 38.6801 47.3101 34.9205V26.6948H51.5995V34.3401C51.5995 36.2578 52.6845 37.3175 54.2994 37.3175C55.9647 37.3175 57.0245 36.2578 57.0245 34.3401V26.6948H61.3392Z" fill="#18CC69"/>
<path d="M75.8685 36.6867C75.8685 39.1342 73.6986 40.9762 70.1661 40.9762C66.4065 40.9762 63.8833 38.8819 63.6814 36.1568H67.9456C68.0466 37.1409 68.9297 37.7969 70.1156 37.7969C71.2258 37.7969 71.8062 37.2923 71.8062 36.6615C71.8062 34.3906 64.1356 36.0307 64.1356 30.8581C64.1356 28.461 66.1794 26.4929 69.8633 26.4929C73.4967 26.4929 75.5153 28.5115 75.7929 31.287H71.8062C71.68 30.3282 70.9483 29.6974 69.7371 29.6974C68.7278 29.6974 68.1727 30.1011 68.1727 30.7824C68.1727 33.028 75.7928 31.4384 75.8685 36.6867Z" fill="#18CC69"/>
<path d="M78.5083 40.7743V26.6948H82.823V40.7743H78.5083ZM80.6782 25.2313C79.1391 25.2313 78.1045 24.1968 78.1045 22.91C78.1045 21.5979 79.1391 20.5634 80.6782 20.5634C82.1922 20.5634 83.2267 21.5979 83.2267 22.91C83.2267 24.1968 82.1922 25.2313 80.6782 25.2313Z" fill="#18CC69"/>
<path d="M95.6642 40.7743V33.129C95.6642 31.2113 94.6044 30.1516 92.9643 30.1516C91.3242 30.1516 90.2645 31.2113 90.2645 33.129V40.7743H85.9498V26.6948H90.2645V28.562C91.1224 27.376 92.6363 26.5434 94.5287 26.5434C97.7837 26.5434 99.9536 28.7638 99.9536 32.5486V40.7743H95.6642Z" fill="#18CC69"/>
<path d="M109.159 29.9497C107.746 29.9497 106.661 30.8076 106.409 32.372H111.808C111.808 30.8328 110.597 29.9497 109.159 29.9497ZM115.896 36.1064C115.215 38.8567 112.717 40.9762 109.209 40.9762C105.071 40.9762 102.094 38.2006 102.094 33.7345C102.094 29.2685 105.021 26.4929 109.209 26.4929C113.322 26.4929 116.224 29.218 116.224 33.5075C116.224 33.9112 116.199 34.3401 116.148 34.7691H106.383C106.535 36.611 107.67 37.4689 109.058 37.4689C110.269 37.4689 110.951 36.8633 111.304 36.1064H115.896Z" fill="#18CC69"/>
<path d="M129.93 36.6867C129.93 39.1342 127.76 40.9762 124.228 40.9762C120.468 40.9762 117.945 38.8819 117.743 36.1568H122.008C122.108 37.1409 122.992 37.7969 124.177 37.7969C125.288 37.7969 125.868 37.2923 125.868 36.6615C125.868 34.3906 118.197 36.0307 118.197 30.8581C118.197 28.461 120.241 26.4929 123.925 26.4929C127.559 26.4929 129.577 28.5115 129.855 31.287H125.868C125.742 30.3282 125.01 29.6974 123.799 29.6974C122.79 29.6974 122.235 30.1011 122.235 30.7824C122.235 33.028 129.855 31.4384 129.93 36.6867Z" fill="#18CC69"/>
<path d="M144 36.6867C144 39.1342 141.83 40.9762 138.298 40.9762C134.538 40.9762 132.015 38.8819 131.813 36.1568H136.077C136.178 37.1409 137.061 37.7969 138.247 37.7969C139.358 37.7969 139.938 37.2923 139.938 36.6615C139.938 34.3906 132.267 36.0307 132.267 30.8581C132.267 28.461 134.311 26.4929 137.995 26.4929C141.628 26.4929 143.647 28.5115 143.925 31.287H139.938C139.812 30.3282 139.08 29.6974 137.869 29.6974C136.86 29.6974 136.305 30.1011 136.305 30.7824C136.305 33.028 143.925 31.4384 144 36.6867Z" fill="#18CC69"/>
</svg>
